Coordinates
version=1
nRows=9
nColumns=24
inDegrees=yes

Units are S.I. units (second, meters, Newtons, ...)
Angles are in degrees.

endheader
time	pelvis_tilt	pelvis_list	pelvis_rotation	pelvis_tx	pelvis_ty	pelvis_tz	hip_flexion_r	hip_adduction_r	hip_rotation_r	knee_angle_r	ankle_angle_r	subtalar_angle_r	mtp_angle_r	hip_flexion_l	hip_adduction_l	hip_rotation_l	knee_angle_l	ankle_angle_l	subtalar_angle_l	mtp_angle_l	lumbar_extension	lumbar_bending	lumbar_rotation
      0.52100000	     -7.41895036	      4.64880318	      3.85923010	     -0.77841176	      1.02278493	      0.29055595	     37.09429697	     -6.03330873	     -2.68507999	     -6.88015374	     10.12074145	     -5.18184074	      7.82468845	    -12.51562235	      5.80958687	      6.21390057	     -3.47427219	     16.94789214	      7.74382201	      6.29312365	     -2.36764588	     -4.87611949	     -3.78838532
      0.52516667	     -7.42380712	      4.64612027	      3.96467959	     -0.77245548	      1.02208027	      0.29090169	     36.98202090	     -6.03386805	     -2.52911643	     -7.21622185	     10.06936842	     -5.21721904	      7.82106034	    -12.65606243	      5.73531155	      6.15023090	     -3.89340247	     16.96747738	      8.00916618	      6.35936613	     -2.32798061	     -4.77046715	     -3.88093111
      0.52933333	     -7.43311826	      4.64004505	      4.07785757	     -0.76647367	      1.02141160	      0.29124588	     36.85822665	     -6.03491553	     -2.41529641	     -7.53794331	      9.96974711	     -5.24156371	      7.82797300	    -12.77799687	      5.65434574	      6.09534377	     -4.34776029	     17.00693531	      8.30290325	      6.45215865	     -2.28628833	     -4.67332207	     -3.92824029
      0.53350000	     -7.45610145	      4.63193992	      4.17145285	     -0.76042356	      1.02076343	      0.29161359	     36.74503972	     -6.02404994	     -2.33245692	     -7.86550543	      9.86329093	     -5.24075614	      7.82966471	    -12.90383606	      5.57836618	      6.12618701	     -4.75848410	     16.89279271	      8.34560056	      6.46972634	     -2.22432285	     -4.57072175	     -3.91978019
      0.53766667	     -7.44115998	      4.59142787	      4.26996249	     -0.75432082	      1.02022390	      0.29200137	     36.55064729	     -5.98102814	     -2.26093647	     -8.12476776	      9.64541744	     -5.35060945	      7.86345872	    -12.98646980	      5.45322974	      5.81794923	     -5.34010439	     16.97063817	      8.96999181	      6.68022698	     -2.17828417	     -4.40000402	     -4.06768081
      0.54183333	     -7.47217865	      4.57977193	      4.36213857	     -0.74820869	      1.01966048	      0.29241061	     36.41710986	     -5.96393732	     -2.21894375	     -8.40911192	      9.37855362	     -5.40128577	      7.93422260	    -13.02672648	      5.36530840	      5.62792973	     -5.90497062	     16.93082475	      9.38845086	      7.04757187	     -2.09216856	     -4.30622684	     -4.07566412
      0.54600000	     -7.47666842	      4.51628154	      4.46283696	     -0.74201807	      1.01921211	      0.29278148	     36.22388003	     -5.90507874	     -2.24458328	     -8.65012251	      9.07727699	     -5.49390023	      7.98859851	    -13.09979238	      5.21942219	      5.51232602	     -6.46584077	     16.85667332	      9.65837884	      7.32333400	     -2.02037830	     -4.10661809	     -4.14752839
      0.55016667	     -7.49748143	      4.48552531	      4.54106641	     -0.73584845	      1.01876817	      0.29322402	     36.06751819	     -5.86385102	     -2.25540067	     -8.91824939	      8.68869694	     -5.59270050	      8.07184129	    -13.11823083	      5.10971176	      5.28938129	     -7.08758030	     16.77023523	     10.09791087	      7.72916895	     -1.94716546	     -3.97154051	     -4.17684176
      0.55433333	     -7.50658401	      4.41084563	      4.63050694	     -0.72960407	      1.01843210	      0.29362691	     35.87019161	     -5.79082158	     -2.33230985	     -9.14236733	      8.28186038	     -5.70629723	      8.15141618	    -13.13267935	      4.95143168	      5.10586870	     -7.74276759	     16.65432457	     10.42377506	      8.13013508	     -1.85822327	     -3.77051400	     -4.21955254
